<svg width="2741" height="588" viewBox="0 0 2741 588" fill="none" xmlns="http://www.w3.org/2000/svg">
<path d="M56.8002 17.6H187.2L315.2 379.2L267.2 587.2L56.8002 17.6ZM456.8 3.24249e-05L471.2 79.2L293.6 498.4C293.6 498.4 292 502.933 288.8 512C285.6 521.067 282.4 532.267 279.2 545.6C276.534 558.933 274.934 572.8 274.4 587.2H267.2L244.8 492L449.6 3.24249e-05H456.8ZM456.8 0.800022L632.8 389.6L594.4 587.2L401.6 160.8L456.8 0.800022ZM766.4 17.6L616 498.4C616 498.4 614.667 503.2 612 512.8C609.334 521.867 606.934 533.333 604.8 547.2C602.667 560.533 601.867 573.867 602.4 587.2H594.4L572 508L712 17.6H766.4ZM696.8 70.4C701.067 54.4 699.734 42.1333 692.8 33.6C685.867 25.0667 677.067 20.8 666.4 20.8H659.2V12.8H826.4V20.8C826.4 20.8 825.334 20.8 823.2 20.8C821.067 20.8 820 20.8 820 20.8C807.734 20.8 794.4 24.8 780 32.8C765.6 40.2667 755.467 52.8 749.6 70.4H696.8ZM207.2 70.4H76.8002C69.8669 52.8 59.4669 40.2667 45.6002 32.8C31.7335 24.8 18.6669 20.8 6.40019 20.8C6.40019 20.8 5.33353 20.8 3.20019 20.8C1.06686 20.8 0.000193834 20.8 0.000193834 20.8V12.8H244V20.8H236.8C226.667 20.8 217.6 25.0667 209.6 33.6C202.134 42.1333 201.334 54.4 207.2 70.4ZM976.931 71.2L1213.73 568.8H1078.53L929.731 217.6L976.931 71.2ZM826.531 520C820.665 534.4 821.465 545.6 828.931 553.6C836.398 561.067 844.665 564.8 853.731 564.8H860.131V572.8H700.131V564.8C700.131 564.8 701.198 564.8 703.331 564.8C705.465 564.8 706.531 564.8 706.531 564.8C717.198 564.8 728.398 561.6 740.131 555.2C751.865 548.267 761.465 536.533 768.931 520H826.531ZM976.931 71.2L978.531 167.2L804.931 570.4H745.731L932.931 168C933.998 164.8 936.398 159.2 940.131 151.2C943.865 142.667 947.865 133.333 952.131 123.2C956.398 112.533 960.398 102.667 964.131 93.6C967.865 84 969.998 76.5333 970.531 71.2H976.931ZM1046.53 416V447.2H842.531V416H1046.53ZM1058.53 520H1190.53C1198.53 536.533 1208.4 548.267 1220.13 555.2C1231.86 561.6 1243.06 564.8 1253.73 564.8C1253.73 564.8 1254.8 564.8 1256.93 564.8C1259.06 564.8 1260.13 564.8 1260.13 564.8V572.8H1024.93V564.8H1031.33C1040.4 564.8 1048.66 561.067 1056.13 553.6C1063.6 545.6 1064.4 534.4 1058.53 520ZM1330.88 93.6L1481.28 353.6L1374.88 365.6L1199.68 93.6H1330.88ZM1486.08 355.2V572.8H1370.88V356.8L1486.08 355.2ZM1599.68 93.6H1658.88L1478.08 371.2L1440.48 364L1599.68 93.6ZM1570.88 142.4C1576.74 132.267 1576.74 122.933 1570.88 114.4C1565.01 105.333 1557.01 100.8 1546.88 100.8C1546.88 100.8 1545.28 100.8 1542.08 100.8C1538.88 100.8 1537.28 100.8 1537.28 100.8V92.8H1709.28V100.8H1698.88C1684.48 100.8 1670.88 104.8 1658.08 112.8C1645.81 120.267 1635.94 129.333 1628.48 140L1570.88 142.4ZM1358.88 142.4L1229.28 140C1221.81 128.8 1211.94 119.467 1199.68 112C1187.41 104.533 1173.81 100.8 1158.88 100.8H1149.28V92.8H1392.48V100.8C1392.48 100.8 1390.88 100.8 1387.68 100.8C1385.01 100.8 1383.68 100.8 1383.68 100.8C1373.01 100.8 1364.74 105.333 1358.88 114.4C1353.54 123.467 1353.54 132.8 1358.88 142.4ZM1373.28 522.4V572.8H1316.48V564.8C1317.01 564.8 1318.61 564.8 1321.28 564.8C1324.48 564.8 1326.08 564.8 1326.08 564.8C1338.34 564.8 1348.74 560.8 1357.28 552.8C1365.81 544.267 1370.34 534.133 1370.88 522.4H1373.28ZM1484.48 522.4H1486.08C1486.61 534.133 1491.14 544.267 1499.68 552.8C1508.74 560.8 1519.14 564.8 1530.88 564.8C1530.88 564.8 1532.48 564.8 1535.68 564.8C1538.88 564.8 1540.48 564.8 1540.48 564.8V572.8H1484.48V522.4ZM1755.47 81.6L2225.07 494.4L2233.07 583.2L1764.27 170.4L1755.47 81.6ZM1758.67 524V572.8H1699.47V564.8C1699.47 564.8 1701.6 564.8 1705.87 564.8C1710.14 564.8 1712.27 564.8 1712.27 564.8C1724.54 564.8 1734.94 561.067 1743.47 553.6C1752 545.6 1756.27 535.733 1756.27 524H1758.67ZM1865.87 524C1866.4 535.733 1870.94 545.6 1879.47 553.6C1888 561.067 1898.14 564.8 1909.87 564.8C1909.87 564.8 1912 564.8 1916.27 564.8C1921.07 564.8 1923.47 564.8 1923.47 564.8V572.8H1864.27V524H1865.87ZM1755.47 81.6L1865.87 201.6V572.8H1756.27V172.8C1756.27 145.6 1754.94 123.733 1752.27 107.2C1749.6 90.1334 1748.27 81.6 1748.27 81.6H1755.47ZM2232.27 92.8V489.6C2232.27 508.267 2232.8 524.8 2233.87 539.2C2235.47 553.067 2236.8 564 2237.87 572C2239.47 579.467 2240.27 583.2 2240.27 583.2H2233.07L2122.67 456V92.8H2232.27ZM2229.87 141.6V92.8H2289.87V100.8C2289.87 100.8 2287.47 100.8 2282.67 100.8C2278.4 100.8 2276.27 100.8 2276.27 100.8C2264.54 100.8 2254.14 104.8 2245.07 112.8C2236.54 120.267 2232.27 129.867 2232.27 141.6H2229.87ZM2122.67 141.6C2122.14 129.867 2117.6 120.267 2109.07 112.8C2101.07 104.8 2090.94 100.8 2078.67 100.8C2078.67 100.8 2076.27 100.8 2071.47 100.8C2067.2 100.8 2065.07 100.8 2065.07 100.8V92.8H2124.27V141.6H2122.67ZM2502.11 92.8V572.8H2386.91V92.8H2502.11ZM2689.31 540.8L2707.71 572.8H2500.51V540.8H2689.31ZM2662.11 319.2V351.2H2500.51V319.2H2662.11ZM2698.11 92.8V124.8H2500.51V92.8H2698.11ZM2740.51 425.6L2710.11 572.8H2571.71L2596.51 540.8C2619.44 540.8 2639.71 536.267 2657.31 527.2C2675.44 517.6 2690.91 504.267 2703.71 487.2C2716.51 469.6 2726.37 449.067 2733.31 425.6H2740.51ZM2662.11 349.6V420H2654.11V413.6C2654.11 396 2648.51 381.333 2637.31 369.6C2626.64 357.867 2611.97 351.733 2593.31 351.2V349.6H2662.11ZM2662.11 250.4V320.8H2593.31V319.2C2611.97 318.667 2626.64 312.533 2637.31 300.8C2648.51 288.533 2654.11 273.6 2654.11 256V250.4H2662.11ZM2698.11 123.2V208H2690.11V200.8C2690.11 177.333 2683.71 158.933 2670.91 145.6C2658.64 132.267 2640.77 125.333 2617.31 124.8V123.2H2698.11ZM2698.11 80.8V100L2614.11 92.8C2629.57 92.8 2645.84 91.4667 2662.91 88.8C2679.97 85.6 2691.71 82.9334 2698.11 80.8ZM2388.51 522.4L2392.51 572.8H2333.31V564.8C2333.31 564.8 2334.91 564.8 2338.11 564.8C2341.31 564.8 2343.17 564.8 2343.71 564.8C2355.44 564.8 2365.31 560.8 2373.31 552.8C2381.84 544.267 2386.37 534.133 2386.91 522.4H2388.51ZM2388.51 143.2H2386.91C2386.37 130.933 2381.84 120.8 2373.31 112.8C2365.31 104.8 2355.44 100.8 2343.71 100.8C2343.17 100.8 2341.31 100.8 2338.11 100.8C2334.91 100.8 2333.31 100.8 2333.31 100.8V92.8H2392.51L2388.51 143.2Z" fill="white"/>
</svg>
